<svg width="121" height="120" viewBox="0 0 121 120" fill="none" xmlns="http://www.w3.org/2000/svg">
<path d="M117.564 0.306641H3.39724C1.93696 0.306641 0.742188 1.50141 0.742188 2.96169V117.129C0.742188 118.589 1.93696 119.784 3.39724 119.784H117.564C119.025 119.784 120.22 118.589 120.22 117.129V2.96169C120.22 1.50141 119.025 0.306641 117.564 0.306641ZM85.8366 95.8885L99.3774 66.6829H106.015L96.9878 95.8885H85.8366ZM40.9662 95.8885L27.2927 66.2847C29.815 65.4882 32.2046 63.4969 34.1958 60.1781C39.1077 52.6112 40.9662 43.1857 42.4265 35.6188C43.6213 29.7777 44.4178 24.3349 44.9488 18.892H75.8802C76.4112 24.3349 77.3404 29.9105 78.4025 35.6188C79.8627 43.1857 81.7213 52.6112 86.6331 60.1781C88.7572 63.3641 91.014 65.3554 93.5363 66.2847L79.9955 95.8885H40.9662ZM18.531 34.9551C19.3276 25.5296 19.3276 15.9714 19.3276 6.67877V5.61674H27.2927C27.16 15.5732 26.6289 24.4676 25.5669 32.831C24.3722 41.8582 23.1774 51.2836 18.2655 58.3195C16.938 60.3108 15.4777 61.2401 14.1502 61.2401H12.0262C14.1502 58.1868 15.2122 54.4697 16.0087 50.8854C17.0708 46.1063 18 40.7962 18.531 34.9551ZM102.431 34.9551C102.962 40.7962 103.758 45.9735 104.953 51.0181C105.75 54.6025 106.812 58.3195 108.936 61.3728H106.944C105.484 61.3728 104.156 60.3108 102.829 58.4523C97.7843 51.2836 96.5896 41.991 95.3948 32.831C94.3328 24.4676 93.8018 15.5732 93.669 5.61674H101.634V6.67877C101.634 15.9714 101.634 25.5296 102.431 34.9551ZM90.0847 33.4948C91.2795 42.6547 92.607 53.1422 98.3154 61.3728H96.3241C94.5983 61.3728 92.8725 60.0453 91.1467 57.3903C86.7659 50.7526 85.0401 41.8582 83.5798 34.6896C81.7213 24.3349 80.6593 14.9094 80.3938 5.61674H88.3589C88.4917 15.7059 89.0227 24.8659 90.0847 33.4948ZM75.4819 13.5819H45.4798C45.6126 10.9268 45.7453 8.2718 45.8781 5.61674H75.0836C75.2164 8.2718 75.3492 10.9268 75.4819 13.5819ZM24.6377 61.3728H22.6464C28.3547 53.1422 29.6823 42.7875 30.877 33.4948C31.9391 24.9986 32.4701 15.8387 32.6028 5.61674H40.568C40.4352 14.9094 39.3732 24.3349 37.3819 34.5568C35.9216 41.7255 34.1958 50.6199 29.815 57.2575C28.0892 60.0453 26.3634 61.3728 24.6377 61.3728ZM6.05229 66.6829H9.37111L18.3983 95.8885H6.05229V66.6829ZM23.9739 95.8885L14.9467 66.6829H21.5843L35.1251 95.8885H23.9739ZM111.591 66.6829H114.909V95.8885H102.563L111.591 66.6829ZM114.909 60.0453C112.254 57.523 111.192 53.9387 110.13 49.6906C109.068 45.0443 108.272 39.9997 107.741 34.4241C106.944 25.2641 106.944 15.8387 106.944 6.67877V5.61674H114.909V60.0453ZM14.0174 5.61674V6.67877C14.0174 15.8387 14.0174 25.2641 13.2209 34.5568C12.6899 40.1324 11.8934 45.177 10.8314 49.8234C9.76936 53.9387 8.70734 57.6558 6.05229 60.0453V5.61674H14.0174ZM6.05229 114.474V101.199H21.9826H98.9791H114.909V114.474H6.05229Z" fill="#FF64D4"/>
</svg>
