<svg width="93" height="132" viewBox="0 0 93 132" fill="none" xmlns="http://www.w3.org/2000/svg">
<path d="M92.9547 9.26685C92.9547 4.30025 88.951 0.27179 84.0148 0.27179H9.0131C4.07697 0.27179 0.0458019 4.30025 0.0458019 9.26685C0.0458019 95.5752 -0.00904395 106.667 0.0732249 107.385C0.594261 114.338 6.70958 119.801 13.9492 119.801H18.9128V128.907C18.9128 130.065 19.6258 131.086 20.6679 131.473C20.9969 131.583 21.326 131.666 21.6551 131.666C22.4229 131.666 23.1633 131.335 23.7118 130.755L30.0191 123.609L36.9022 130.838C37.6701 131.666 38.8767 131.914 39.8913 131.5C40.9334 131.086 41.619 130.065 41.619 128.934V119.829H83.9874C88.9235 119.829 92.9273 115.8 92.9273 110.834V95.7408C92.9547 95.7132 92.9547 9.26685 92.9547 9.26685ZM87.4701 9.26685V92.9264H21.326V5.79023H84.0148C85.9344 5.79023 87.4701 7.36298 87.4701 9.26685ZM5.53039 9.26685C5.53039 7.36298 7.0935 5.79023 9.0131 5.79023H15.8414V92.954H13.3734C10.5488 92.954 7.55969 94.0301 5.53039 95.5201V9.26685ZM36.1618 122.064L31.9387 117.649C31.4176 117.097 30.7046 116.794 29.9642 116.794C29.9368 116.794 29.9368 116.794 29.9094 116.794C29.1415 116.821 28.4285 117.152 27.9075 117.704L24.4248 121.677V117.07V109.151H36.1618V117.07C36.1618 117.042 36.1618 122.064 36.1618 122.064ZM87.4701 110.806C87.4701 112.738 85.907 114.283 84.0148 114.283H41.6464V106.364C41.6464 104.846 40.4124 103.605 38.9041 103.605H21.6825C20.1742 103.605 18.9402 104.846 18.9402 106.364V114.283H13.9767C9.56156 114.283 5.88689 111.054 5.55781 106.86C5.53039 106.695 5.53039 106.529 5.53039 106.364C5.53039 102.087 8.98568 98.4724 13.3734 98.4724H87.4701V110.806Z" fill="#FF64D4"/>
</svg>
