<svg width="115" height="118" viewBox="0 0 115 118" fill="none" xmlns="http://www.w3.org/2000/svg">
<path d="M104.136 8.31361H86.8781V3.0035C86.8781 1.54322 85.6833 0.34845 84.223 0.34845C82.7627 0.34845 81.568 1.54322 81.568 3.0035V8.31361H33.777V3.0035C33.777 1.54322 32.5822 0.34845 31.122 0.34845C29.6617 0.34845 28.4669 1.54322 28.4669 3.0035V8.31361H11.2091C5.36796 8.31361 0.588867 13.0927 0.588867 18.9338V106.551C0.588867 112.392 5.36796 117.171 11.2091 117.171H104.136C109.977 117.171 114.756 112.392 114.756 106.551V18.9338C114.756 13.0927 109.977 8.31361 104.136 8.31361ZM11.2091 13.6237H28.4669V18.9338C28.4669 20.3941 29.6617 21.5889 31.122 21.5889C32.5822 21.5889 33.777 20.3941 33.777 18.9338V13.6237H81.568V18.9338C81.568 20.3941 82.7627 21.5889 84.223 21.5889C85.6833 21.5889 86.8781 20.3941 86.8781 18.9338V13.6237H104.136C107.056 13.6237 109.446 16.0133 109.446 18.9338V29.554H5.89897V18.9338C5.89897 16.0133 8.28852 13.6237 11.2091 13.6237ZM104.136 111.861H11.2091C8.28852 111.861 5.89897 109.471 5.89897 106.551V34.8641H109.446V106.551C109.446 109.471 107.056 111.861 104.136 111.861ZM35.1045 80H16.5192C15.0589 80 13.8641 81.1948 13.8641 82.6551V101.24C13.8641 102.701 15.0589 103.895 16.5192 103.895H35.1045C36.5648 103.895 37.7596 102.701 37.7596 101.24V82.6551C37.7596 81.1948 36.5648 80 35.1045 80ZM32.4495 98.5854H19.1742V85.3101H32.4495V98.5854ZM66.9652 80H48.3798C46.9195 80 45.7248 81.1948 45.7248 82.6551V101.24C45.7248 102.701 46.9195 103.895 48.3798 103.895H66.9652C68.4255 103.895 69.6202 102.701 69.6202 101.24V82.6551C69.6202 81.1948 68.4255 80 66.9652 80ZM64.3101 98.5854H51.0349V85.3101H64.3101V98.5854ZM98.8258 80H80.2404C78.7802 80 77.5854 81.1948 77.5854 82.6551V101.24C77.5854 102.701 78.7802 103.895 80.2404 103.895H98.8258C100.286 103.895 101.481 102.701 101.481 101.24V82.6551C101.481 81.1948 100.286 80 98.8258 80ZM96.1707 98.5854H82.8955V85.3101H96.1707V98.5854ZM35.1045 48.1394H16.5192C15.0589 48.1394 13.8641 49.3342 13.8641 50.7944V69.3798C13.8641 70.8401 15.0589 72.0349 16.5192 72.0349H35.1045C36.5648 72.0349 37.7596 70.8401 37.7596 69.3798V50.7944C37.7596 49.3342 36.5648 48.1394 35.1045 48.1394ZM32.4495 66.7248H19.1742V53.4495H32.4495V66.7248ZM66.9652 48.1394H48.3798C46.9195 48.1394 45.7248 49.3342 45.7248 50.7944V69.3798C45.7248 70.8401 46.9195 72.0349 48.3798 72.0349H66.9652C68.4255 72.0349 69.6202 70.8401 69.6202 69.3798V50.7944C69.6202 49.3342 68.4255 48.1394 66.9652 48.1394ZM64.3101 66.7248H51.0349V53.4495H64.3101V66.7248ZM98.8258 48.1394H80.2404C78.7802 48.1394 77.5854 49.3342 77.5854 50.7944V69.3798C77.5854 70.8401 78.7802 72.0349 80.2404 72.0349H98.8258C100.286 72.0349 101.481 70.8401 101.481 69.3798V50.7944C101.481 49.3342 100.286 48.1394 98.8258 48.1394ZM96.1707 66.7248H82.8955V53.4495H96.1707V66.7248Z" fill="#FF64D4"/>
</svg>
