<svg width="114" height="124" viewBox="0 0 114 124" fill="none" xmlns="http://www.w3.org/2000/svg">
<path d="M42.0933 77.2189H13.7108C6.38286 77.2189 0.435547 83.1663 0.435547 90.4942V120.456C0.435547 121.917 1.63032 123.112 3.0906 123.112C4.55088 123.112 5.74565 121.917 5.74565 120.456V90.4942C5.74565 86.1001 9.3167 82.5291 13.7108 82.5291H41.5889L59.6698 90.2818C60.9044 90.8128 62.3514 90.3216 63.0151 89.1534L71.591 74.1391C72.9716 71.5902 76.1444 70.6344 78.6932 72.015C81.2421 73.3957 82.1979 76.5685 80.8173 79.1173C80.7243 79.2899 80.6181 79.4625 80.5119 79.6218L65.5507 102.269L42.9031 94.9281C41.5092 94.4768 40.0091 95.2335 39.5577 96.6274C39.4648 96.8929 39.425 97.1717 39.425 97.4504V120.456C39.425 121.917 40.6198 123.112 42.08 123.112C42.319 123.112 42.558 123.072 42.7836 123.005C43.0093 123.072 43.2483 123.112 43.4872 123.112H111.191C112.651 123.112 113.846 121.917 113.846 120.456V3.63418C113.846 2.1739 112.651 0.979126 111.191 0.979126H22.6318C21.1715 0.979126 19.9767 2.1739 19.9767 3.63418V39.3446C19.9767 39.411 19.9767 39.4907 19.9767 39.557C11.4806 40.8182 5.6129 48.717 6.87405 57.2131C8.1352 65.7093 16.034 71.577 24.5301 70.3158C33.0263 69.0547 38.894 61.1559 37.6328 52.6597C36.677 46.1681 31.7386 40.9642 25.2868 39.6898C25.3001 39.5703 25.3001 39.4641 25.2868 39.3446V6.28923H108.549V117.801H44.7484V101.114L65.8295 107.951C66.9712 108.323 68.2058 107.885 68.8695 106.889L84.9193 82.5423C88.1983 77.7234 86.9504 71.1522 82.1182 67.8864C77.2993 64.6075 70.7281 65.8553 67.4623 70.6875C67.2765 70.953 67.1172 71.2318 66.9579 71.5106L59.5503 84.4672L43.1421 77.4314C42.8102 77.2853 42.4518 77.2189 42.0933 77.2189ZM32.4688 54.9829C32.4688 60.6647 27.8622 65.2712 22.1804 65.2712C16.4986 65.2712 11.8921 60.6647 11.8921 54.9829C11.8921 49.3011 16.4986 44.6946 22.1804 44.6946C27.8622 44.7078 32.4555 49.3011 32.4688 54.9829Z" fill="#FF64D4"/>
<path d="M49.1823 29.1891H74.6309C76.0912 29.1891 77.286 27.9943 77.286 26.534C77.286 25.0737 76.0912 23.879 74.6309 23.879H49.1823C47.722 23.879 46.5272 25.0737 46.5272 26.534C46.5272 27.9943 47.722 29.1891 49.1823 29.1891Z" fill="#FF64D4"/>
<path d="M49.1823 47.7744H93.2163C94.6766 47.7744 95.8714 46.5796 95.8714 45.1193C95.8714 43.6591 94.6766 42.4643 93.2163 42.4643H49.1823C47.722 42.4643 46.5272 43.6591 46.5272 45.1193C46.5272 46.5796 47.722 47.7744 49.1823 47.7744Z" fill="#FF64D4"/>
</svg>
