<svg xmlns="http://www.w3.org/2000/svg" viewBox="0 0 300.01 73.42"><defs><style>.cls-1{fill:#fff;}</style></defs><title>Ativo 1</title><g id="Camada_2" data-name="Camada 2"><g id="Layer_1" data-name="Layer 1"><path class="cls-1" d="M36.15,72.37a54.69,54.69,0,0,1-2.68-17,56.14,56.14,0,0,1,6.94-27.46,88.29,88.29,0,0,0,15.64,1.89c1.54,0,3,.07,4.47.07,1.9,0,4.41,0,6.87-.22A63.31,63.31,0,0,0,52.85,40.45a58.56,58.56,0,0,0-16.7,31.92"/><path class="cls-1" d="M35.24,73.22A86.16,86.16,0,0,1,10,45.8C1.9,32.1.34,17.28.1,14.45a24.81,24.81,0,0,1,0-4.12C3.27,15.6,18.35,22.05,33.24,26.1c2,.54,4,1,6,1.52a57.36,57.36,0,0,0-6.92,27.73,55.72,55.72,0,0,0,2.91,17.87"/><path class="cls-1" d="M37.13,73.42c4.66-28.7,27.3-41.16,32.54-43.68C67.83,36.47,59,57.29,37.13,73.42"/><path class="cls-1" d="M39.84,26.58c-2.13-.48-4.24-1-6.31-1.57C13,19.4-.32,11.55.64,8a1.17,1.17,0,0,1,.09-.24A5.87,5.87,0,0,1,2.65,6.3C13.29.82,28.28,0,36.27,0h.11A84,84,0,0,1,68.44,6.17C57,7.58,46.63,14.91,39.84,26.58M.42,7.5H.8l-.11.22Z"/><path class="cls-1" d="M290.21,23.06V17.79H298V15.7h-7.82V10.79h8.41V8.71H288V25.15H299V23.06Zm-19.46,0h-2.82V10.79h3.34c5.37,0,6.47,4,6.47,6.14,0,4.06-3.22,6.13-7,6.13Zm.7-14.35h-5.76V25.15h5.38c5.89,0,9-4,9-8.22,0-3-1.69-8.22-8.65-8.22ZM229.24,23.06h-2.82V10.79h3.35c5.36,0,6.46,4,6.46,6.14,0,4.06-3.22,6.13-7,6.13Zm.69-14.35h-5.75V25.15h5.38c5.9,0,9-4,9-8.22,0-3-1.7-8.22-8.67-8.22ZM212.7,25.15h2.24V8.71H212.7V25.15ZM196.62,12.89c0-1,.74-2.51,3.2-2.51a3.47,3.47,0,0,1,2.94,1.44l1.81-1.65a5.73,5.73,0,0,0-4.75-1.88c-4,0-5.58,2.67-5.58,4.6,0,6.41,8.12,4.06,8.12,7.85,0,1.81-1.82,2.74-3.28,2.74a4.1,4.1,0,0,1-3.49-1.77l-1.84,1.58A6.31,6.31,0,0,0,199,25.57c3.17,0,5.72-1.91,5.72-5.09,0-5.92-8.11-3.44-8.11-7.59ZM178.44,16V10.66h2.94c1.77,0,3.54.41,3.54,2.65S183.15,16,181.38,16Zm8.86-2.64c0-2.07-1.08-4.6-5.29-4.6h-5.8V25.15h2.23V17.9h2.5l4.19,7.25h2.79l-4.68-7.5a4.42,4.42,0,0,0,4.06-4.34Zm-27.74,4.48h7.82V15.7h-7.82V10.79H168V8.71H157.33V25.15h11.06V23.06h-8.83V17.79Zm90.62-9.08-6.5,16.44h2.44l5-13.38h0L256,25.15h2.59L252.27,8.71Zm-107,13.38h-.05L138.32,8.71h-2.58l6.36,16.44h2.1l6.49-16.44h-2.44l-5,13.38Zm-16.35,3.06h2.24V8.71h-2.24V25.15Zm-11.14-2.93h0L106.61,8.71h-2.93V25.15h2.24V11.64h0l9.17,13.51H118V8.71h-2.25V22.22ZM92.85,18.78c0,2.06-1,4.7-4.15,4.7s-4.14-2.64-4.14-4.7V8.71H82.32V19.13a6.39,6.39,0,1,0,12.77,0V8.71H92.85Z"/><path class="cls-1" d="M201.57,32.69l-9.37,24.4h-.1l-9.2-24.4h-9.37l14.89,37.24H195l15.36-37.24Zm50.68,0h-8.2V69.93H262.8a7.5,7.5,0,0,0,7.49-7.42v-.15h-18V32.69ZM282,62.36V54.78h16.16V47.21H282V40.27h17.1V32.69h-25.3V69.93h18.76A7.5,7.5,0,0,0,300,62.51v-.15ZM219.1,32.69h6.57l14.89,37.24h-9.37L222,45.52h-.11l-9.36,24.41h-8.78L219.1,32.69ZM82.32,69.93h8.2V55.41H106V47.84H90.52V40.27h16.79V32.69h-25V69.93ZM153,54.78h16.15V47.21H153V40.27h17.1V32.69H144.78V69.93h18.76A7.49,7.49,0,0,0,171,62.51v-.15H153V54.78Zm-31.37,0h16.14V47.21H121.62V40.27H138.7V32.69H113.41V69.93h18.75a7.51,7.51,0,0,0,7.5-7.42v-.15h-18Z"/></g></g></svg>