<svg width="235" height="307" viewBox="0 0 235 307" fill="none" xmlns="http://www.w3.org/2000/svg">
<path d="M179.932 0C183.656 1.00467 187.284 2.33396 190.776 3.9726C195.417 6.48776 199.265 10.2475 201.886 14.8292C204.508 19.411 205.8 24.6331 205.616 29.9087C205.616 44.5205 205.616 59.1324 205.616 73.7443C205.616 82.169 205.616 90.5708 205.616 98.9954C205.53 100.305 204.998 101.546 204.11 102.511C199.977 106.872 195.685 111.073 190.982 115.776V31.3014C190.982 20.5936 185.114 14.7032 174.384 14.7032H31.3699C20.5479 14.6804 14.6804 20.5479 14.6804 31.4384V203.562C14.6804 214.452 20.5251 220.32 31.3699 220.32H110.16V235H25.6849C25.3627 234.834 25.0266 234.696 24.6804 234.589C20.4781 234.009 16.4649 232.473 12.9499 230.098C9.43501 227.723 6.51211 224.573 4.40639 220.89C2.62303 217.151 1.1493 213.272 0 209.292L0 25.7078C0.176438 25.3904 0.314398 25.0532 0.410959 24.7032C0.990575 20.5009 2.52704 16.4877 4.902 12.9728C7.27696 9.45784 10.427 6.53494 14.1096 4.42922C17.848 2.63806 21.7271 1.15668 25.7078 0L179.932 0Z" fill="#967440"/>
<path d="M235 145.045C233.744 149.909 230.434 153.31 226.963 156.712C207.762 175.959 188.584 195.502 168.95 214.429C163.272 219.659 156.846 224.014 149.886 227.351C145.045 229.772 139.155 230.068 133.721 231.324L118.424 235H117.511C119.954 224.132 122.192 213.219 125 202.443C125.982 198.913 127.737 195.645 130.137 192.877C136.119 185.845 142.42 179.178 148.904 172.488C165.297 155.89 181.849 139.475 198.333 122.991C204.178 117.169 210.822 115.936 217.237 119.543C218.485 120.288 219.636 121.185 220.662 122.214C223.904 125.342 227.032 128.584 230.251 131.758C232.591 134.171 234.226 137.18 234.977 140.456L235 145.045ZM189.064 142.762C188.63 143.173 188.219 143.516 187.854 143.881C174.733 157.001 161.583 170.129 148.402 183.265C144.155 187.534 140.068 191.963 136.05 196.164L155.662 215.753C158.631 213.618 161.488 211.332 164.224 208.904C176.233 197.169 188.014 185.274 199.863 173.516C203.196 170.182 206.598 166.918 209.909 163.698L189.064 142.762Z" fill="#967440"/>
<path d="M161.461 44.2239V58.6303H44.2463V44.2239H161.461Z" fill="#967440"/>
<path d="M161.461 73.6072V88.0136H44.2463V73.6072H161.461Z" fill="#967440"/>
<path d="M161.461 102.968V117.397H44.2463V102.968H161.461Z" fill="#967440"/>
<path d="M44.1782 146.712V132.42H102.74V146.827L44.1782 146.712Z" fill="#967440"/>
<rect y="263.816" width="210" height="42.3684" fill="#967440"/>
<path d="M45.9425 279.833V278.962H49.8165V279.82L48.7635 279.95L50.4405 285.436L50.8695 287.035L51.2725 285.449L52.8065 279.95L51.7925 279.833V278.962H55.0815V279.833L54.3535 279.937L51.3765 288.92H49.9725L46.7355 279.937L45.9425 279.833ZM59.4741 281.51C60.2974 281.51 60.9388 281.739 61.3981 282.199C61.8574 282.658 62.1088 283.312 62.1521 284.162C62.1608 284.456 62.1478 284.729 62.1131 284.981C62.0871 285.232 62.0698 285.388 62.0611 285.449H57.5501C57.5848 286.22 57.7884 286.818 58.1611 287.243C58.5424 287.659 59.0798 287.867 59.7731 287.867C60.0851 287.867 60.4144 287.836 60.7611 287.776C61.1164 287.706 61.4198 287.611 61.6711 287.49L61.9701 288.166C61.6754 288.417 61.2638 288.616 60.7351 288.764C60.2064 288.911 59.6864 288.985 59.1751 288.985C58.0658 288.985 57.2078 288.664 56.6011 288.023C56.0031 287.381 55.7041 286.497 55.7041 285.371C55.7041 284.625 55.8644 283.962 56.1851 283.382C56.5058 282.792 56.9521 282.333 57.5241 282.004C58.0961 281.674 58.7461 281.51 59.4741 281.51ZM59.1231 282.329C58.6811 282.329 58.3214 282.519 58.0441 282.901C57.7668 283.273 57.6021 283.811 57.5501 284.513H60.3191C60.3364 284.305 60.3451 284.144 60.3451 284.032C60.3451 283.538 60.2498 283.174 60.0591 282.94C59.9204 282.532 59.6084 282.329 59.1231 282.329ZM64.9732 277.909C65.3285 277.909 65.6015 278.004 65.7922 278.195C65.9829 278.385 66.0782 278.637 66.0782 278.949C66.0782 279.295 65.9482 279.586 65.6882 279.82C65.4282 280.045 65.1249 280.158 64.7782 280.158C64.4662 280.158 64.2062 280.067 63.9982 279.885C63.7902 279.694 63.6862 279.443 63.6862 279.131C63.6862 278.914 63.7469 278.71 63.8682 278.52C63.9982 278.329 64.1629 278.182 64.3622 278.078C64.5615 277.965 64.7652 277.909 64.9732 277.909ZM65.9742 281.692V289.024C65.9742 289.986 65.7619 290.748 65.3372 291.312C64.9212 291.884 64.3405 292.17 63.5952 292.17C63.4305 292.17 63.2355 292.152 63.0102 292.118C62.7849 292.083 62.6419 292.048 62.5812 292.014V290.922C62.6332 290.939 62.7372 290.956 62.8932 290.974C63.0579 290.991 63.1965 291 63.3092 291C63.6645 291 63.8985 290.831 64.0112 290.493C64.1239 290.163 64.1802 289.613 64.1802 288.842V283.46L63.4002 282.719V282.238L65.5582 281.536L65.9742 281.692ZM70.7734 281.549C71.6488 281.549 72.3204 281.739 72.7884 282.121C73.2564 282.502 73.4904 283.135 73.4904 284.019L73.4774 288.088H74.2964V288.66C74.1318 288.764 73.9108 288.846 73.6334 288.907C73.3561 288.967 73.0961 288.998 72.8534 288.998C72.2208 288.998 71.8914 288.738 71.8654 288.218C71.3974 288.729 70.7474 288.985 69.9154 288.985C69.2134 288.985 68.6458 288.798 68.2124 288.426C67.7791 288.053 67.5624 287.576 67.5624 286.996C67.5624 286.424 67.7661 285.947 68.1734 285.566C68.5894 285.184 69.1094 284.907 69.7334 284.734C70.3661 284.56 71.0118 284.474 71.6704 284.474V284.162C71.6704 283.59 71.5448 283.191 71.2934 282.966C71.0508 282.74 70.6738 282.628 70.1624 282.628C69.8591 282.628 69.5254 282.675 69.1614 282.771C68.8061 282.857 68.4941 282.974 68.2254 283.122L67.8874 282.316C68.1821 282.073 68.6111 281.887 69.1744 281.757C69.7464 281.618 70.2794 281.549 70.7734 281.549ZM71.6704 285.319C71.0724 285.319 70.5438 285.436 70.0844 285.67C69.6251 285.895 69.3954 286.25 69.3954 286.736C69.3954 287.533 69.8071 287.932 70.6304 287.932C70.8124 287.932 70.9988 287.901 71.1894 287.841C71.3801 287.771 71.5361 287.676 71.6574 287.555L71.6704 285.319ZM81.5612 281.497C82.6705 281.488 83.5199 281.809 84.1092 282.459C84.6985 283.109 84.9889 283.997 84.9802 285.124C84.9802 285.886 84.8242 286.562 84.5122 287.152C84.2002 287.732 83.7755 288.183 83.2382 288.504C82.7009 288.816 82.0899 288.972 81.4052 288.972C80.2699 288.972 79.4032 288.634 78.8052 287.958C78.2159 287.273 77.9212 286.372 77.9212 285.254C77.9212 284.491 78.0772 283.832 78.3892 283.278C78.7099 282.714 79.1432 282.281 79.6892 281.978C80.2439 281.674 80.8679 281.514 81.5612 281.497ZM81.4702 282.342C80.8895 282.342 80.4735 282.58 80.2222 283.057C79.9795 283.533 79.8582 284.201 79.8582 285.059C79.8582 285.882 79.9969 286.597 80.2742 287.204C80.5515 287.81 80.9545 288.114 81.4832 288.114C82.0725 288.114 82.4842 287.862 82.7182 287.36C82.9522 286.848 83.0692 286.133 83.0692 285.215C83.0692 284.365 82.9392 283.676 82.6792 283.148C82.4192 282.61 82.0162 282.342 81.4702 282.342ZM95.558 278.637V288.088H96.429V288.686C96.273 288.781 96.0434 288.859 95.74 288.92C95.4367 288.989 95.1074 289.024 94.752 289.024C94.4747 289.024 94.2667 288.976 94.128 288.881C93.9894 288.785 93.8984 288.616 93.855 288.374C93.6557 288.538 93.3697 288.681 92.997 288.803C92.6244 288.924 92.2257 288.985 91.801 288.985C91.255 288.985 90.761 288.837 90.319 288.543C89.8857 288.248 89.5434 287.828 89.292 287.282C89.0407 286.736 88.915 286.103 88.915 285.384C88.915 284.638 89.0884 283.971 89.435 283.382C89.7817 282.792 90.254 282.333 90.852 282.004C91.45 281.674 92.1087 281.51 92.828 281.51C93.2267 281.51 93.5344 281.536 93.751 281.588V279.846L92.36 279.534V278.78L95.194 278.481L95.558 278.637ZM92.633 282.303C92.3037 282.303 91.996 282.415 91.71 282.641C91.424 282.857 91.1944 283.178 91.021 283.603C90.8477 284.019 90.761 284.504 90.761 285.059C90.761 285.622 90.839 286.129 90.995 286.58C91.151 287.022 91.3677 287.368 91.645 287.62C91.9224 287.871 92.2344 287.997 92.581 287.997C92.815 287.997 93.036 287.971 93.244 287.919C93.452 287.858 93.621 287.776 93.751 287.672V282.654C93.4737 282.42 93.101 282.303 92.633 282.303ZM100.998 281.497C102.107 281.488 102.956 281.809 103.546 282.459C104.135 283.109 104.425 283.997 104.417 285.124C104.417 285.886 104.261 286.562 103.949 287.152C103.637 287.732 103.212 288.183 102.675 288.504C102.137 288.816 101.526 288.972 100.842 288.972C99.7064 288.972 98.8397 288.634 98.2417 287.958C97.6524 287.273 97.3577 286.372 97.3577 285.254C97.3577 284.491 97.5137 283.832 97.8257 283.278C98.1464 282.714 98.5797 282.281 99.1257 281.978C99.6804 281.674 100.304 281.514 100.998 281.497ZM100.907 282.342C100.326 282.342 99.91 282.58 99.6587 283.057C99.416 283.533 99.2947 284.201 99.2947 285.059C99.2947 285.882 99.4334 286.597 99.7107 287.204C99.988 287.81 100.391 288.114 100.92 288.114C101.509 288.114 101.921 287.862 102.155 287.36C102.389 286.848 102.506 286.133 102.506 285.215C102.506 284.365 102.376 283.676 102.116 283.148C101.856 282.61 101.453 282.342 100.907 282.342ZM109.33 281.51C109.711 281.51 110.093 281.54 110.474 281.601C110.855 281.653 111.137 281.731 111.319 281.835V283.655H110.396L109.967 282.654C109.854 282.567 109.716 282.506 109.551 282.472C109.386 282.437 109.226 282.42 109.07 282.42C108.541 282.42 108.121 282.654 107.809 283.122C107.497 283.581 107.341 284.196 107.341 284.968C107.341 285.574 107.436 286.094 107.627 286.528C107.818 286.961 108.073 287.29 108.394 287.516C108.723 287.741 109.087 287.854 109.486 287.854C109.815 287.854 110.149 287.819 110.487 287.75C110.825 287.672 111.085 287.576 111.267 287.464L111.553 288.166C111.267 288.426 110.881 288.625 110.396 288.764C109.911 288.902 109.386 288.972 108.823 288.972C108.138 288.972 107.545 288.824 107.042 288.53C106.548 288.226 106.171 287.806 105.911 287.269C105.651 286.731 105.517 286.116 105.508 285.423C105.508 284.651 105.673 283.971 106.002 283.382C106.331 282.792 106.786 282.337 107.367 282.017C107.948 281.687 108.602 281.518 109.33 281.51ZM112.388 282.68V282.03L114.481 281.549L114.767 281.653V286.047C114.767 286.688 114.845 287.152 115.001 287.438C115.157 287.724 115.456 287.867 115.898 287.867C116.149 287.867 116.409 287.815 116.678 287.711C116.947 287.607 117.142 287.494 117.263 287.373V283.096L116.457 282.758V282.03L118.771 281.549L119.031 281.653V288.088H119.772V288.699C119.633 288.785 119.399 288.863 119.07 288.933C118.749 289.002 118.472 289.037 118.238 289.037C117.995 289.037 117.8 288.98 117.653 288.868C117.506 288.764 117.432 288.603 117.432 288.387V288.023C117.163 288.3 116.825 288.53 116.418 288.712C116.011 288.885 115.629 288.972 115.274 288.972C114.659 288.972 114.186 288.863 113.857 288.647C113.528 288.421 113.307 288.109 113.194 287.711C113.081 287.303 113.021 286.77 113.012 286.112V283.018L112.388 282.68ZM121.731 287.932V283.369L120.847 282.784V282.16L122.914 281.536L123.317 281.666V282.589C123.594 282.311 123.958 282.073 124.409 281.874C124.86 281.666 125.289 281.553 125.696 281.536C126.19 281.518 126.602 281.583 126.931 281.731C127.26 281.878 127.507 282.134 127.672 282.498C128.001 282.212 128.391 281.982 128.842 281.809C129.293 281.635 129.735 281.549 130.168 281.549C130.948 281.549 131.507 281.8 131.845 282.303C132.183 282.797 132.352 283.555 132.352 284.578V287.932L133.327 288.088V288.816H129.752V288.088L130.532 287.932V284.851C130.532 284.331 130.497 283.928 130.428 283.642C130.367 283.356 130.242 283.143 130.051 283.005C129.86 282.857 129.579 282.784 129.206 282.784C128.825 282.784 128.391 282.922 127.906 283.2C127.975 283.52 128.01 283.936 128.01 284.448V287.932L128.933 288.088V288.816H125.28V288.088L126.19 287.919V284.786C126.19 284.058 126.103 283.542 125.93 283.239C125.757 282.935 125.419 282.784 124.916 282.784C124.691 282.784 124.457 282.823 124.214 282.901C123.98 282.979 123.759 283.096 123.551 283.252V287.932L124.409 288.088V288.816H120.912V288.088L121.731 287.932ZM137.944 281.51C138.767 281.51 139.408 281.739 139.868 282.199C140.327 282.658 140.578 283.312 140.622 284.162C140.63 284.456 140.617 284.729 140.583 284.981C140.557 285.232 140.539 285.388 140.531 285.449H136.02C136.054 286.22 136.258 286.818 136.631 287.243C137.012 287.659 137.549 287.867 138.243 287.867C138.555 287.867 138.884 287.836 139.231 287.776C139.586 287.706 139.889 287.611 140.141 287.49L140.44 288.166C140.145 288.417 139.733 288.616 139.205 288.764C138.676 288.911 138.156 288.985 137.645 288.985C136.535 288.985 135.677 288.664 135.071 288.023C134.473 287.381 134.174 286.497 134.174 285.371C134.174 284.625 134.334 283.962 134.655 283.382C134.975 282.792 135.422 282.333 135.994 282.004C136.566 281.674 137.216 281.51 137.944 281.51ZM137.593 282.329C137.151 282.329 136.791 282.519 136.514 282.901C136.236 283.273 136.072 283.811 136.02 284.513H138.789C138.806 284.305 138.815 284.144 138.815 284.032C138.815 283.538 138.719 283.174 138.529 282.94C138.39 282.532 138.078 282.329 137.593 282.329ZM142.78 287.945V283.369L141.896 282.784V282.16L143.963 281.536L144.366 281.666V282.589C144.687 282.285 145.094 282.038 145.588 281.848C146.082 281.648 146.554 281.549 147.005 281.549C147.75 281.549 148.275 281.787 148.578 282.264C148.881 282.732 149.033 283.464 149.033 284.461V287.945L149.969 288.088V288.816H146.29V288.088L147.213 287.932V284.734C147.213 284.24 147.183 283.858 147.122 283.59C147.061 283.321 146.94 283.122 146.758 282.992C146.576 282.862 146.299 282.797 145.926 282.797C145.735 282.797 145.514 282.836 145.263 282.914C145.012 282.992 144.791 283.104 144.6 283.252V287.932L145.432 288.088V288.816H141.948V288.088L142.78 287.945ZM153.404 281.718H155.51V282.719H153.456V285.397C153.456 286.055 153.469 286.545 153.495 286.866C153.521 287.186 153.586 287.429 153.69 287.594C153.794 287.75 153.963 287.828 154.197 287.828C154.37 287.828 154.578 287.802 154.821 287.75C155.072 287.698 155.25 287.641 155.354 287.581L155.64 288.244C155.423 288.469 155.089 288.647 154.639 288.777C154.188 288.907 153.759 288.972 153.352 288.972C152.762 288.972 152.338 288.807 152.078 288.478C151.818 288.14 151.688 287.607 151.688 286.879V282.719H150.739V282.108C151.12 282.021 151.384 281.943 151.532 281.874C151.688 281.804 151.818 281.687 151.922 281.523C152.069 281.297 152.273 280.795 152.533 280.015H153.404V281.718ZM160.158 281.497C161.267 281.488 162.117 281.809 162.706 282.459C163.295 283.109 163.586 283.997 163.577 285.124C163.577 285.886 163.421 286.562 163.109 287.152C162.797 287.732 162.372 288.183 161.835 288.504C161.298 288.816 160.687 288.972 160.002 288.972C158.867 288.972 158 288.634 157.402 287.958C156.813 287.273 156.518 286.372 156.518 285.254C156.518 284.491 156.674 283.832 156.986 283.278C157.307 282.714 157.74 282.281 158.286 281.978C158.841 281.674 159.465 281.514 160.158 281.497ZM160.067 282.342C159.486 282.342 159.07 282.58 158.819 283.057C158.576 283.533 158.455 284.201 158.455 285.059C158.455 285.882 158.594 286.597 158.871 287.204C159.148 287.81 159.551 288.114 160.08 288.114C160.669 288.114 161.081 287.862 161.315 287.36C161.549 286.848 161.666 286.133 161.666 285.215C161.666 284.365 161.536 283.676 161.276 283.148C161.016 282.61 160.613 282.342 160.067 282.342Z" fill="white"/>
</svg>
